<?xml version="1.0" encoding="utf-8" standalone="no"?>
<!DOCTYPE svg PUBLIC "-//W3C//DTD SVG 1.1//EN"
  "http://www.w3.org/Graphics/SVG/1.1/DTD/svg11.dtd">
<svg xmlns:xlink="http://www.w3.org/1999/xlink" width="302.943281pt" height="326.630491pt" viewBox="0 0 302.943281 326.630491" xmlns="http://www.w3.org/2000/svg" version="1.1">
 <metadata>
  <rdf:RDF xmlns:dc="http://purl.org/dc/elements/1.1/" xmlns:cc="http://creativecommons.org/ns#" xmlns:rdf="http://www.w3.org/1999/02/22-rdf-syntax-ns#">
   <cc:Work>
    <dc:type rdf:resource="http://purl.org/dc/dcmitype/StillImage"/>
    <dc:date>2026-06-28T11:37:42.898474</dc:date>
    <dc:format>image/svg+xml</dc:format>
    <dc:creator>
     <cc:Agent>
      <dc:title>Matplotlib v3.10.8, https://matplotlib.org/</dc:title>
     </cc:Agent>
    </dc:creator>
   </cc:Work>
  </rdf:RDF>
 </metadata>
 <defs>
  <style type="text/css">*{stroke-linejoin: round; stroke-linecap: butt}</style>
 </defs>
 <g id="figure_1">
  <g id="patch_1">
   <path d="M 0 326.630491 
L 302.943281 326.630491 
L 302.943281 0 
L 0 0 
z
" style="fill: #ffffff"/>
  </g>
  <g id="axes_1">
   <g id="patch_2">
    <path d="M 278.264062 168.002891 
C 278.264062 151.622184 275.03742 135.400759 268.768795 120.266959 
C 262.50017 105.13316 253.311471 91.3813 241.728562 79.798391 
C 230.145654 68.215482 216.393794 59.026783 201.259994 52.758158 
C 186.126194 46.489533 169.904769 43.262891 153.524062 43.262891 
C 137.143356 43.262891 120.921931 46.489533 105.788131 52.758158 
C 90.654331 59.026783 76.902471 68.215482 65.319563 79.798391 
C 53.736654 91.3813 44.547955 105.13316 38.27933 120.266959 
C 32.010705 135.400759 28.784063 151.622184 28.784063 168.002891 
C 28.784063 184.383597 32.010705 200.605022 38.27933 215.738822 
C 44.547955 230.872622 53.736654 244.624482 65.319563 256.207391 
C 76.902471 267.790299 90.654331 276.978998 105.788131 283.247624 
C 120.921931 289.516249 137.143356 292.742891 153.524062 292.742891 
C 169.904769 292.742891 186.126194 289.516249 201.259994 283.247624 
C 216.393794 276.978998 230.145654 267.790299 241.728562 256.207391 
C 253.311471 244.624482 262.50017 230.872622 268.768795 215.738822 
C 275.03742 200.605022 278.264062 184.383597 278.264062 168.002891 
M 153.524062 168.002891 
C 153.524062 168.002891 153.524062 168.002891 153.524062 168.002891 
C 153.524062 168.002891 153.524062 168.002891 153.524062 168.002891 
C 153.524062 168.002891 153.524062 168.002891 153.524062 168.002891 
C 153.524062 168.002891 153.524062 168.002891 153.524062 168.002891 
C 153.524062 168.002891 153.524062 168.002891 153.524062 168.002891 
C 153.524062 168.002891 153.524062 168.002891 153.524062 168.002891 
C 153.524062 168.002891 153.524062 168.002891 153.524062 168.002891 
C 153.524062 168.002891 153.524062 168.002891 153.524062 168.002891 
C 153.524062 168.002891 153.524062 168.002891 153.524062 168.002891 
C 153.524062 168.002891 153.524062 168.002891 153.524062 168.002891 
C 153.524062 168.002891 153.524062 168.002891 153.524062 168.002891 
C 153.524062 168.002891 153.524062 168.002891 153.524062 168.002891 
C 153.524062 168.002891 153.524062 168.002891 153.524062 168.002891 
C 153.524062 168.002891 153.524062 168.002891 153.524062 168.002891 
C 153.524062 168.002891 153.524062 168.002891 153.524062 168.002891 
C 153.524062 168.002891 153.524062 168.002891 153.524062 168.002891 
z
" style="fill: #ffffff"/>
   </g>
   <g id="matplotlib.axis_1">
    <g id="xtick_1">
     <g id="line2d_1">
      <path d="M 153.524062 168.002891 
L 278.264062 168.002891 
" clip-path="url(#pd4b9569aee)" style="fill: none; stroke: #b0b0b0; stroke-width: 0.8; stroke-linecap: square"/>
     </g>
     <g id="text_1">
      <text style="font-size: 7px; font-family: 'Microsoft YaHei', 'Arial', 'Helvetica', 'DejaVu Sans', sans-serif; text-anchor: middle" x="292.264062" y="169.930625" transform="rotate(-0 292.264062 169.930625)">0°</text>
     </g>
    </g>
    <g id="xtick_2">
     <g id="line2d_2">
      <path d="M 153.524062 168.002891 
L 241.728562 79.798391 
" clip-path="url(#pd4b9569aee)" style="fill: none; stroke: #b0b0b0; stroke-width: 0.8; stroke-linecap: square"/>
     </g>
     <g id="text_2">
      <text style="font-size: 7px; font-family: 'Microsoft YaHei', 'Arial', 'Helvetica', 'DejaVu Sans', sans-serif; text-anchor: middle" x="251.628057" y="71.82663" transform="rotate(-0 251.628057 71.82663)">45°</text>
     </g>
    </g>
    <g id="xtick_3">
     <g id="line2d_3">
      <path d="M 153.524062 168.002891 
L 153.524062 43.262891 
" clip-path="url(#pd4b9569aee)" style="fill: none; stroke: #b0b0b0; stroke-width: 0.8; stroke-linecap: square"/>
     </g>
     <g id="text_3">
      <text style="font-size: 7px; font-family: 'Microsoft YaHei', 'Arial', 'Helvetica', 'DejaVu Sans', sans-serif; text-anchor: middle" x="153.524062" y="31.190625" transform="rotate(-0 153.524062 31.190625)">90°</text>
     </g>
    </g>
    <g id="xtick_4">
     <g id="line2d_4">
      <path d="M 153.524062 168.002891 
L 65.319563 79.798391 
" clip-path="url(#pd4b9569aee)" style="fill: none; stroke: #b0b0b0; stroke-width: 0.8; stroke-linecap: square"/>
     </g>
     <g id="text_4">
      <text style="font-size: 7px; font-family: 'Microsoft YaHei', 'Arial', 'Helvetica', 'DejaVu Sans', sans-serif; text-anchor: middle" x="55.420068" y="71.82663" transform="rotate(-0 55.420068 71.82663)">135°</text>
     </g>
    </g>
    <g id="xtick_5">
     <g id="line2d_5">
      <path d="M 153.524062 168.002891 
L 28.784063 168.002891 
" clip-path="url(#pd4b9569aee)" style="fill: none; stroke: #b0b0b0; stroke-width: 0.8; stroke-linecap: square"/>
     </g>
     <g id="text_5">
      <text style="font-size: 7px; font-family: 'Microsoft YaHei', 'Arial', 'Helvetica', 'DejaVu Sans', sans-serif; text-anchor: middle" x="14.784063" y="169.930625" transform="rotate(-0 14.784063 169.930625)">180°</text>
     </g>
    </g>
    <g id="xtick_6">
     <g id="line2d_6">
      <path d="M 153.524062 168.002891 
L 65.319563 256.207391 
" clip-path="url(#pd4b9569aee)" style="fill: none; stroke: #b0b0b0; stroke-width: 0.8; stroke-linecap: square"/>
     </g>
     <g id="text_6">
      <text style="font-size: 7px; font-family: 'Microsoft YaHei', 'Arial', 'Helvetica', 'DejaVu Sans', sans-serif; text-anchor: middle" x="55.420068" y="268.03462" transform="rotate(-0 55.420068 268.03462)">-135°</text>
     </g>
    </g>
    <g id="xtick_7">
     <g id="line2d_7">
      <path d="M 153.524062 168.002891 
L 153.524062 292.742891 
" clip-path="url(#pd4b9569aee)" style="fill: none; stroke: #b0b0b0; stroke-width: 0.8; stroke-linecap: square"/>
     </g>
     <g id="text_7">
      <text style="font-size: 7px; font-family: 'Microsoft YaHei', 'Arial', 'Helvetica', 'DejaVu Sans', sans-serif; text-anchor: middle" x="153.524062" y="308.670625" transform="rotate(-0 153.524062 308.670625)">-90°</text>
     </g>
    </g>
    <g id="xtick_8">
     <g id="line2d_8">
      <path d="M 153.524062 168.002891 
L 241.728562 256.207391 
" clip-path="url(#pd4b9569aee)" style="fill: none; stroke: #b0b0b0; stroke-width: 0.8; stroke-linecap: square"/>
     </g>
     <g id="text_8">
      <text style="font-size: 7px; font-family: 'Microsoft YaHei', 'Arial', 'Helvetica', 'DejaVu Sans', sans-serif; text-anchor: middle" x="251.628057" y="268.03462" transform="rotate(-0 251.628057 268.03462)">-45°</text>
     </g>
    </g>
   </g>
   <g id="matplotlib.axis_2">
    <g id="ytick_1">
     <g id="line2d_9">
      <path d="M 173.793353 168.002891 
C 173.793353 165.341152 173.269049 162.705295 172.250445 160.246169 
C 171.231842 157.787043 169.738749 155.552471 167.856615 153.670338 
C 165.974482 151.788204 163.73991 150.295111 161.280784 149.276508 
C 158.821658 148.257905 156.185801 147.7336 153.524062 147.7336 
C 150.862324 147.7336 148.226467 148.257905 145.767341 149.276508 
C 143.308215 150.295111 141.073643 151.788204 139.19151 153.670338 
C 137.309376 155.552471 135.816283 157.787043 134.79768 160.246169 
C 133.779076 162.705295 133.254772 165.341152 133.254772 168.002891 
C 133.254772 170.664629 133.779076 173.300486 134.79768 175.759612 
C 135.816283 178.218738 137.309376 180.45331 139.19151 182.335443 
C 141.073643 184.217577 143.308215 185.71067 145.767341 186.729273 
C 148.226467 187.747877 150.862324 188.272181 153.524062 188.272181 
C 156.185801 188.272181 158.821658 187.747877 161.280784 186.729273 
C 163.73991 185.71067 165.974482 184.217577 167.856615 182.335443 
C 169.738749 180.45331 171.231842 178.218738 172.250445 175.759612 
C 173.269049 173.300486 173.793353 170.664629 173.793353 168.002891 
" clip-path="url(#pd4b9569aee)" style="fill: none; stroke: #b0b0b0; stroke-width: 0.8; stroke-linecap: square"/>
     </g>
    </g>
    <g id="ytick_2">
     <g id="line2d_10">
      <path d="M 194.062644 168.002891 
C 194.062644 162.679413 193.014035 157.407699 190.976828 152.489447 
C 188.939621 147.571195 185.953435 143.102052 182.189168 139.337785 
C 178.424901 135.573518 173.955758 132.587332 169.037506 130.550125 
C 164.119254 128.512918 158.84754 127.464309 153.524062 127.464309 
C 148.200585 127.464309 142.928871 128.512918 138.010619 130.550125 
C 133.092367 132.587332 128.623224 135.573518 124.858957 139.337785 
C 121.09469 143.102052 118.108504 147.571195 116.071297 152.489447 
C 114.03409 157.407699 112.985481 162.679413 112.985481 168.002891 
C 112.985481 173.326368 114.03409 178.598082 116.071297 183.516334 
C 118.108504 188.434586 121.09469 192.903729 124.858957 196.667996 
C 128.623224 200.432263 133.092367 203.418449 138.010619 205.455656 
C 142.928871 207.492863 148.200585 208.541472 153.524062 208.541472 
C 158.84754 208.541472 164.119254 207.492863 169.037506 205.455656 
C 173.955758 203.418449 178.424901 200.432263 182.189168 196.667996 
C 185.953435 192.903729 188.939621 188.434586 190.976828 183.516334 
C 193.014035 178.598082 194.062644 173.326368 194.062644 168.002891 
" clip-path="url(#pd4b9569aee)" style="fill: none; stroke: #b0b0b0; stroke-width: 0.8; stroke-linecap: square"/>
     </g>
    </g>
    <g id="ytick_3">
     <g id="line2d_11">
      <path d="M 214.331934 168.002891 
C 214.331934 160.017674 212.759021 152.110104 209.703211 144.732726 
C 206.647401 137.355347 202.168122 130.651633 196.521721 125.005232 
C 190.87532 119.358831 184.171606 114.879553 176.794228 111.823742 
C 169.416849 108.767932 161.509279 107.195019 153.524062 107.195019 
C 145.538846 107.195019 137.631276 108.767932 130.253897 111.823742 
C 122.876519 114.879553 116.172805 119.358831 110.526404 125.005232 
C 104.880003 130.651633 100.400724 137.355347 97.344914 144.732726 
C 94.289104 152.110104 92.716191 160.017674 92.716191 168.002891 
C 92.716191 175.988107 94.289104 183.895678 97.344914 191.273056 
C 100.400724 198.650434 104.880003 205.354148 110.526404 211.000549 
C 116.172805 216.64695 122.876519 221.126229 130.253897 224.182039 
C 137.631276 227.237849 145.538846 228.810762 153.524062 228.810762 
C 161.509279 228.810762 169.416849 227.237849 176.794228 224.182039 
C 184.171606 221.126229 190.87532 216.64695 196.521721 211.000549 
C 202.168122 205.354148 206.647401 198.650434 209.703211 191.273056 
C 212.759021 183.895678 214.331934 175.988107 214.331934 168.002891 
" clip-path="url(#pd4b9569aee)" style="fill: none; stroke: #b0b0b0; stroke-width: 0.8; stroke-linecap: square"/>
     </g>
    </g>
    <g id="ytick_4">
     <g id="line2d_12">
      <path d="M 234.601225 168.002891 
C 234.601225 157.355935 232.504007 146.812508 228.429593 136.976004 
C 224.35518 127.1395 218.382808 118.201214 210.854274 110.672679 
C 203.325739 103.144145 194.387453 97.171773 184.550949 93.09736 
C 174.714445 89.022946 164.171018 86.925728 153.524062 86.925728 
C 142.877107 86.925728 132.33368 89.022946 122.497176 93.09736 
C 112.660672 97.171773 103.722386 103.144145 96.193851 110.672679 
C 88.665317 118.201214 82.692945 127.1395 78.618532 136.976004 
C 74.544118 146.812508 72.4469 157.355935 72.4469 168.002891 
C 72.4469 178.649846 74.544118 189.193273 78.618532 199.029777 
C 82.692945 208.866282 88.665317 217.804568 96.193851 225.333102 
C 103.722386 232.861636 112.660672 238.834008 122.497176 242.908422 
C 132.33368 246.982835 142.877107 249.080053 153.524062 249.080053 
C 164.171018 249.080053 174.714445 246.982835 184.550949 242.908422 
C 194.387453 238.834008 203.325739 232.861636 210.854274 225.333102 
C 218.382808 217.804568 224.35518 208.866282 228.429593 199.029777 
C 232.504007 189.193273 234.601225 178.649846 234.601225 168.002891 
" clip-path="url(#pd4b9569aee)" style="fill: none; stroke: #b0b0b0; stroke-width: 0.8; stroke-linecap: square"/>
     </g>
    </g>
    <g id="ytick_5">
     <g id="line2d_13">
      <path d="M 254.870515 168.002891 
C 254.870515 154.694196 252.248993 141.514912 247.155976 129.219282 
C 242.062959 116.923652 234.597495 105.750794 225.186827 96.340126 
C 215.776159 86.929459 204.603301 79.463994 192.307671 74.370977 
C 180.012041 69.27796 166.832757 66.656438 153.524062 66.656438 
C 140.215368 66.656438 127.036084 69.27796 114.740454 74.370977 
C 102.444824 79.463994 91.271966 86.929459 81.861298 96.340126 
C 72.45063 105.750794 64.985166 116.923652 59.892149 129.219282 
C 54.799132 141.514912 52.17761 154.694196 52.17761 168.002891 
C 52.17761 181.311585 54.799132 194.490869 59.892149 206.786499 
C 64.985166 219.082129 72.45063 230.254987 81.861298 239.665655 
C 91.271966 249.076323 102.444824 256.541787 114.740454 261.634804 
C 127.036084 266.727821 140.215368 269.349344 153.524062 269.349344 
C 166.832757 269.349344 180.012041 266.727821 192.307671 261.634804 
C 204.603301 256.541787 215.776159 249.076323 225.186827 239.665655 
C 234.597495 230.254987 242.062959 219.082129 247.155976 206.786499 
C 252.248993 194.490869 254.870515 181.311585 254.870515 168.002891 
" clip-path="url(#pd4b9569aee)" style="fill: none; stroke: #b0b0b0; stroke-width: 0.8; stroke-linecap: square"/>
     </g>
    </g>
    <g id="ytick_6">
     <g id="line2d_14">
      <path d="M 275.139806 168.002891 
C 275.139806 152.032458 271.993979 136.217317 265.882359 121.46256 
C 259.770739 106.707804 250.812181 93.300375 239.519379 82.007574 
C 228.226578 70.714772 214.819149 61.756214 200.064393 55.644594 
C 185.309636 49.532974 169.494496 46.387147 153.524062 46.387147 
C 137.553629 46.387147 121.738489 49.532974 106.983732 55.644594 
C 92.228976 61.756214 78.821547 70.714772 67.528746 82.007574 
C 56.235944 93.300375 47.277386 106.707804 41.165766 121.46256 
C 35.054146 136.217317 31.908319 152.032458 31.908319 168.002891 
C 31.908319 183.973324 35.054146 199.788465 41.165766 214.543221 
C 47.277386 229.297977 56.235944 242.705406 67.528746 253.998208 
C 78.821547 265.291009 92.228976 274.249567 106.983732 280.361187 
C 121.738489 286.472807 137.553629 289.618634 153.524062 289.618634 
C 169.494496 289.618634 185.309636 286.472807 200.064393 280.361187 
C 214.819149 274.249567 228.226578 265.291009 239.519379 253.998208 
C 250.812181 242.705406 259.770739 229.297977 265.882359 214.543221 
C 271.993979 199.788465 275.139806 183.973324 275.139806 168.002891 
" clip-path="url(#pd4b9569aee)" style="fill: none; stroke: #b0b0b0; stroke-width: 0.8; stroke-linecap: square"/>
     </g>
    </g>
   </g>
   <g id="patch_3">
    <path d="M 41.283725 172.90341 
L 41.349149 182.770998 
L 92.989996 181.42297 
L 134.351467 174.047987 
L 149.827951 169.53387 
L 152.902892 168.326251 
L 153.445218 168.05312 
L 153.515314 168.009604 
L 153.52247 168.004349 
L 153.523471 168.003536 
L 153.523781 168.003257 
L 153.523886 168.003167 
L 153.523916 168.003173 
L 153.523954 168.003152 
L 153.523935 168.003294 
L 153.523938 168.003451 
L 153.523978 168.003529 
L 153.524049 168.003194 
L 153.524069 168.003044 
L 153.524094 168.003127 
L 153.524105 168.003084 
L 153.524216 168.003377 
L 153.524297 168.003456 
L 153.524267 168.003284 
L 153.524265 168.003209 
L 153.524322 168.003228 
L 153.524479 168.003345 
L 153.524501 168.003293 
L 153.524513 168.003236 
L 153.524515 168.003179 
L 153.524631 168.003187 
L 153.524764 168.003181 
L 153.525468 168.003334 
L 153.526146 168.003353 
L 153.526727 168.003241 
L 153.527361 168.003035 
L 153.527944 168.002721 
L 153.527582 168.002427 
L 153.528119 168.001991 
L 153.528114 168.001613 
L 153.528785 168.000935 
L 153.528104 168.000787 
L 153.527857 168.000473 
L 153.527668 168.000124 
L 153.52682 168.000364 
L 153.526466 168.000268 
L 153.526223 168.000074 
L 153.525384 168.000816 
L 153.524928 168.001228 
L 153.524813 168.001078 
L 153.524811 168.000518 
L 153.524847 167.999353 
L 153.524771 167.997506 
L 153.524374 167.995761 
L 153.523651 167.993474 
L 153.522548 167.991387 
L 153.521756 167.992486 
L 153.521628 167.995171 
L 153.521472 167.996637 
L 153.52113 167.997257 
L 153.5211 167.998241 
L 153.521734 167.999856 
L 153.521766 168.000385 
L 153.521683 168.00071 
L 153.520336 168.000031 
L 153.515291 167.997302 
L 153.497085 167.988847 
L 153.37512 167.941197 
L 152.599855 167.711489 
L 148.306993 166.846294 
L 131.742656 165.135314 
L 89.252635 165.196739 
z
" clip-path="url(#pd4b9569aee)" style="fill: #0f4d92; opacity: 0.35; stroke: #0f4d92; stroke-linejoin: miter"/>
   </g>
   <g id="patch_4">
    <path d="M 278.264062 168.002891 
C 278.264062 151.622184 275.03742 135.400759 268.768795 120.266959 
C 262.50017 105.13316 253.311471 91.3813 241.728562 79.798391 
C 230.145654 68.215482 216.393794 59.026783 201.259994 52.758158 
C 186.126194 46.489533 169.904769 43.262891 153.524062 43.262891 
C 137.143356 43.262891 120.921931 46.489533 105.788131 52.758158 
C 90.654331 59.026783 76.902471 68.215482 65.319563 79.798391 
C 53.736654 91.3813 44.547955 105.13316 38.27933 120.266959 
C 32.010705 135.400759 28.784063 151.622184 28.784063 168.002891 
C 28.784063 184.383597 32.010705 200.605022 38.27933 215.738822 
C 44.547955 230.872622 53.736654 244.624482 65.319563 256.207391 
C 76.902471 267.790299 90.654331 276.978998 105.788131 283.247624 
C 120.921931 289.516249 137.143356 292.742891 153.524062 292.742891 
C 169.904769 292.742891 186.126194 289.516249 201.259994 283.247624 
C 216.393794 276.978998 230.145654 267.790299 241.728562 256.207391 
C 253.311471 244.624482 262.50017 230.872622 268.768795 215.738822 
C 275.03742 200.605022 278.264062 184.383597 278.264062 168.002891 
" style="fill: none; stroke: #000000; stroke-width: 0.8; stroke-linejoin: miter; stroke-linecap: square"/>
   </g>
   <g id="line2d_15">
    <path d="M 41.283725 172.90341 
L 41.349149 182.770998 
L 92.989996 181.42297 
L 134.351467 174.047987 
L 149.827951 169.53387 
L 152.902892 168.326251 
L 153.445218 168.05312 
L 153.515314 168.009604 
L 153.52247 168.004349 
L 153.523471 168.003536 
L 153.523781 168.003257 
L 153.523886 168.003167 
L 153.523916 168.003173 
L 153.523954 168.003152 
L 153.523935 168.003294 
L 153.523938 168.003451 
L 153.523978 168.003529 
L 153.524049 168.003194 
L 153.524069 168.003044 
L 153.524094 168.003127 
L 153.524105 168.003084 
L 153.524216 168.003377 
L 153.524297 168.003456 
L 153.524267 168.003284 
L 153.524265 168.003209 
L 153.524322 168.003228 
L 153.524479 168.003345 
L 153.524501 168.003293 
L 153.524513 168.003236 
L 153.524515 168.003179 
L 153.524631 168.003187 
L 153.524764 168.003181 
L 153.525468 168.003334 
L 153.526146 168.003353 
L 153.526727 168.003241 
L 153.527361 168.003035 
L 153.527944 168.002721 
L 153.527582 168.002427 
L 153.528119 168.001991 
L 153.528114 168.001613 
L 153.528785 168.000935 
L 153.528104 168.000787 
L 153.527857 168.000473 
L 153.527668 168.000124 
L 153.52682 168.000364 
L 153.526466 168.000268 
L 153.526223 168.000074 
L 153.525384 168.000816 
L 153.524928 168.001228 
L 153.524813 168.001078 
L 153.524811 168.000518 
L 153.524847 167.999353 
L 153.524771 167.997506 
L 153.524374 167.995761 
L 153.523651 167.993474 
L 153.522548 167.991387 
L 153.521756 167.992486 
L 153.521628 167.995171 
L 153.521472 167.996637 
L 153.52113 167.997257 
L 153.5211 167.998241 
L 153.521734 167.999856 
L 153.521766 168.000385 
L 153.521683 168.00071 
L 153.520336 168.000031 
L 153.515291 167.997302 
L 153.497085 167.988847 
L 153.37512 167.941197 
L 152.599855 167.711489 
L 148.306993 166.846294 
L 131.742656 165.135314 
L 89.252635 165.196739 
L 41.283725 172.90341 
" clip-path="url(#pd4b9569aee)" style="fill: none; stroke: #0f4d92; stroke-width: 1.2; stroke-linecap: square"/>
   </g>
   <g id="text_9">
    <text style="font-size: 8px; font-family: 'Microsoft YaHei', 'Arial', 'Helvetica', 'DejaVu Sans', sans-serif; text-anchor: middle" x="153.524062" y="13.595" transform="rotate(-0 153.524062 13.595)">当前帧方位响应 (圆阵极坐标)</text>
   </g>
   <g id="line2d_16">
    <path d="M 153.524062 168.002891 
L 34.780746 171.672339 
" clip-path="url(#pd4b9569aee)" style="fill: none; stroke: #b64342; stroke-width: 2; stroke-linecap: square"/>
   </g>
   <g id="line2d_17">
    <path d="M 153.524062 168.002891 
L 41.349149 182.770998 
" clip-path="url(#pd4b9569aee)" style="fill: none; stroke-dasharray: 5.55,2.4; stroke-dashoffset: 0; stroke: #5b9b5b; stroke-width: 1.5"/>
   </g>
   <g id="PathCollection_1">
    <defs>
     <path id="m3b67144ff5" d="M 0 -3.162278 
L -0.709976 -0.977198 
L -3.007505 -0.977198 
L -1.148765 0.373256 
L -1.85874 2.558336 
L -0 1.207883 
L 1.85874 2.558336 
L 1.148765 0.373256 
L 3.007505 -0.977198 
L 0.709976 -0.977198 
z
" style="stroke: #b64342"/>
    </defs>
    <g clip-path="url(#pd4b9569aee)">
     <use xlink:href="#m3b67144ff5" x="34.780746" y="171.672339" style="fill: #b64342; stroke: #b64342"/>
    </g>
   </g>
   <g id="legend_1">
    <g id="line2d_18">
     <path d="M 77.474062 312.939631 
L 83.974062 312.939631 
L 90.474062 312.939631 
" style="fill: none; stroke: #0f4d92; stroke-width: 2; stroke-linecap: square"/>
    </g>
    <g id="text_10">
     <text style="font-size: 6.5px; font-family: 'Microsoft YaHei', 'Arial', 'Helvetica', 'DejaVu Sans', sans-serif; text-anchor: start" x="95.674062" y="315.214631" transform="rotate(-0 95.674062 315.214631)">模型响应</text>
    </g>
    <g id="line2d_19">
     <path d="M 134.674062 312.939631 
L 141.174062 312.939631 
L 147.674062 312.939631 
" style="fill: none; stroke: #b64342; stroke-width: 2; stroke-linecap: square"/>
    </g>
    <g id="text_11">
     <text style="font-size: 6.5px; font-family: 'Microsoft YaHei', 'Arial', 'Helvetica', 'DejaVu Sans', sans-serif; text-anchor: start" x="152.874062" y="315.214631" transform="rotate(-0 152.874062 315.214631)">真值方位</text>
    </g>
    <g id="line2d_20">
     <path d="M 191.874062 312.939631 
L 198.374062 312.939631 
L 204.874062 312.939631 
" style="fill: none; stroke-dasharray: 5.55,2.4; stroke-dashoffset: 0; stroke: #5b9b5b; stroke-width: 1.5"/>
    </g>
    <g id="text_12">
     <text style="font-size: 6.5px; font-family: 'Microsoft YaHei', 'Arial', 'Helvetica', 'DejaVu Sans', sans-serif; text-anchor: start" x="210.074062" y="315.214631" transform="rotate(-0 210.074062 315.214631)">预测峰</text>
    </g>
   </g>
  </g>
 </g>
 <defs>
  <clipPath id="pd4b9569aee">
   <path d="M 278.264062 168.002891 
C 278.264062 151.622184 275.03742 135.400759 268.768795 120.266959 
C 262.50017 105.13316 253.311471 91.3813 241.728562 79.798391 
C 230.145654 68.215482 216.393794 59.026783 201.259994 52.758158 
C 186.126194 46.489533 169.904769 43.262891 153.524062 43.262891 
C 137.143356 43.262891 120.921931 46.489533 105.788131 52.758158 
C 90.654331 59.026783 76.902471 68.215482 65.319563 79.798391 
C 53.736654 91.3813 44.547955 105.13316 38.27933 120.266959 
C 32.010705 135.400759 28.784063 151.622184 28.784063 168.002891 
C 28.784063 184.383597 32.010705 200.605022 38.27933 215.738822 
C 44.547955 230.872622 53.736654 244.624482 65.319563 256.207391 
C 76.902471 267.790299 90.654331 276.978998 105.788131 283.247624 
C 120.921931 289.516249 137.143356 292.742891 153.524062 292.742891 
C 169.904769 292.742891 186.126194 289.516249 201.259994 283.247624 
C 216.393794 276.978998 230.145654 267.790299 241.728562 256.207391 
C 253.311471 244.624482 262.50017 230.872622 268.768795 215.738822 
C 275.03742 200.605022 278.264062 184.383597 278.264062 168.002891 
M 153.524062 168.002891 
C 153.524062 168.002891 153.524062 168.002891 153.524062 168.002891 
C 153.524062 168.002891 153.524062 168.002891 153.524062 168.002891 
C 153.524062 168.002891 153.524062 168.002891 153.524062 168.002891 
C 153.524062 168.002891 153.524062 168.002891 153.524062 168.002891 
C 153.524062 168.002891 153.524062 168.002891 153.524062 168.002891 
C 153.524062 168.002891 153.524062 168.002891 153.524062 168.002891 
C 153.524062 168.002891 153.524062 168.002891 153.524062 168.002891 
C 153.524062 168.002891 153.524062 168.002891 153.524062 168.002891 
C 153.524062 168.002891 153.524062 168.002891 153.524062 168.002891 
C 153.524062 168.002891 153.524062 168.002891 153.524062 168.002891 
C 153.524062 168.002891 153.524062 168.002891 153.524062 168.002891 
C 153.524062 168.002891 153.524062 168.002891 153.524062 168.002891 
C 153.524062 168.002891 153.524062 168.002891 153.524062 168.002891 
C 153.524062 168.002891 153.524062 168.002891 153.524062 168.002891 
C 153.524062 168.002891 153.524062 168.002891 153.524062 168.002891 
C 153.524062 168.002891 153.524062 168.002891 153.524062 168.002891 
z
"/>
  </clipPath>
 </defs>
</svg>
